<?xml version="1.0" encoding="UTF-8" standalone="no"?>
<svg
   id="Ebene_1"
   data-name="Ebene 1"
   viewBox="0 0 159.6 95.13"
   version="1.1"
   sodipodi:docname="Logo_mango_ohne_sub_white.svg"
   width="159.60001"
   height="95.129997"
   inkscape:version="1.3.2 (091e20e, 2023-11-25, custom)"
   xmlns:inkscape="http://www.inkscape.org/namespaces/inkscape"
   xmlns:sodipodi="http://sodipodi.sourceforge.net/DTD/sodipodi-0.dtd"
   xmlns="http://www.w3.org/2000/svg"
   xmlns:svg="http://www.w3.org/2000/svg">
  <sodipodi:namedview
     id="namedview9"
     pagecolor="#ffffff"
     bordercolor="#000000"
     borderopacity="0.25"
     inkscape:showpageshadow="2"
     inkscape:pageopacity="0.0"
     inkscape:pagecheckerboard="0"
     inkscape:deskcolor="#d1d1d1"
     inkscape:zoom="7.583001"
     inkscape:cx="50.112086"
     inkscape:cy="32.243171"
     inkscape:window-width="3072"
     inkscape:window-height="1634"
     inkscape:window-x="3061"
     inkscape:window-y="-11"
     inkscape:window-maximized="1"
     inkscape:current-layer="Ebene_1" />
  <defs
     id="defs1">
    <style
       id="style1">.cls-1{fill:#1d1d1b;}.cls-2{fill:#fdc743;stroke:#fdc743;}.cls-2,.cls-3{stroke-linejoin:round;}.cls-3{fill:#f49600;stroke:#f49600;}.cls-4{fill:#7d4e24;}.cls-5{fill:#6bad2e;}</style>
  </defs>
  <path
     class="cls-2"
     d="m 17.71,16.7 c 5.25,-0.11 15.56,2.49 20.36,6.13 10.8,8.16 11.8,12.16 14.25,22.79 0,0.11 0,0.23 -0.06,0.34 A 26.66,26.66 0 0 0 37.65,28.16 c -5.13,-2.46 -14,-6.41 -19,-6.3 -14,0.3 -19.34,14.89 -14.21,27.74 q 0.28,0.73 0.63,1.44 a 29.49,29.49 0 0 1 -2.61,-5 C -2.93,32.46 2.87,17.01 17.71,16.7 Z"
     id="path6" />
  <path
     class="cls-3"
     d="m 0.51,45.96 a 27.52,27.52 0 0 0 2.86,6.14 c 5.35,8.51 16.49,12.94 20.69,22.49 1.55,3.52 4.2,10 6.72,13.06 4.76,5.74 11.76,-0.14 14.61,-4 2.05,-2.79 4.83,-6.35 6,-8.67 a 38.23,38.23 0 0 1 -7.6,14.14 c -3.12,3.58 -10.55,8.8 -15,2.71 -2.33,-3.2 -4.68,-9.64 -6,-13.25 C 19.2,68.78 8.3,63.58 3.48,54.74 A 27.14,27.14 0 0 1 0.51,45.96 Z"
     id="path7" />
  <path
     class="cls-4"
     d="m 13.08,1.96 c -1.88,1.78 -2.69,4.85 -2.12,8 a 20.45,20.45 0 0 0 2.62,6.49 H 13.39 A 21.74,21.74 0 0 0 11.28,16.99 21.61,21.61 0 0 1 8.71,10.33 C 8.01,6.43 9.08,2.57 11.51,0.27 a 1,1 0 0 1 0.56,-0.29 1.13,1.13 0 0 1 1.05,0.33 1.15,1.15 0 0 1 -0.04,1.65 z"
     id="path8" />
  <path
     class="cls-5"
     d="m 34.64,12.9 a 28.23,28.23 0 0 0 -20.56,1 c 0.91,-0.07 2,-0.13 3.33,-0.14 0.85,0 1.78,0 2.76,0.06 0.98,0.06 2,0.15 3.08,0.27 1.08,0.12 2.15,0.32 3.25,0.57 a 32.71,32.71 0 0 1 3.29,0.89 26.23,26.23 0 0 1 3.15,1.27 l 0.76,0.36 0.73,0.4 c 0.48,0.26 0.94,0.56 1.38,0.85 a 19.79,19.79 0 0 1 2.44,1.86 13.79,13.79 0 0 1 1,1 c 0.34,0.32 0.62,0.66 0.9,1 a 23,23 0 0 1 1.42,1.82 c 0.36,0.58 0.69,1.08 0.93,1.5 l 0.72,1.37 -0.8,-1.31 c -0.27,-0.41 -0.63,-0.89 -1,-1.44 -0.37,-0.55 -0.91,-1.13 -1.51,-1.7 -0.3,-0.3 -0.59,-0.61 -0.94,-0.9 -0.35,-0.29 -0.67,-0.61 -1.06,-0.88 a 19.82,19.82 0 0 0 -2.48,-1.66 15.35,15.35 0 0 0 -1.4,-0.72 l -0.72,-0.35 -0.75,-0.3 a 27,27 0 0 0 -3.11,-1 32.59,32.59 0 0 0 -3.21,-0.65 c -1.06,-0.18 -2.13,-0.27 -3.15,-0.34 -1.02,-0.07 -2,-0.09 -3,-0.08 -1,0.01 -1.83,0.06 -2.65,0.11 -1.64,0.12 -3,0.3 -3.94,0.46 h -0.05 c 0.58,4 3.62,12.91 19.22,14.22 a 27.75,27.75 0 0 1 6.63,1.32 c 2.94,1 6.29,2.72 7.17,5.5 0.04,-0.02 5.68,-18.44 -11.83,-24.36 z"
     id="path9" />
  <text
     xml:space="preserve"
     style="fill:#000000"
     x="29.144133"
     y="71.73941"
     id="text9"><tspan
       sodipodi:role="line"
       id="tspan9"
       x="29.144133"
       y="71.73941"
       style="font-style:normal;font-variant:normal;font-weight:bold;font-stretch:normal;font-size:34.6667px;font-family:Candara;-inkscape-font-specification:'Candara, Bold';font-variant-ligatures:normal;font-variant-caps:normal;font-variant-numeric:normal;font-variant-east-asian:normal;fill:#ffffff;fill-opacity:1">Mango.jl</tspan></text>
</svg>
